<?xml version="1.0" encoding="utf-8"?>
<!-- Generator: Adobe Illustrator 28.1.0, SVG Export Plug-In . SVG Version: 6.00 Build 0)  -->
<svg version="1.1" id="Layer_1" xmlns="http://www.w3.org/2000/svg" xmlns:xlink="http://www.w3.org/1999/xlink" x="0px" y="0px"
	 viewBox="0 0 24 24" style="enable-background:new 0 0 24 24;" xml:space="preserve">
<style type="text/css">
	.st0{fill:#0062B1;}
	.st1{fill:#029CFF;}
</style>
<path class="st0" d="M11.5,21.7l-8-4.4C3.2,17.1,3,16.8,3,16.4V7.6c0-0.4,0.2-0.7,0.5-0.9l8-4.4c0.3-0.2,0.7-0.2,1,0l8,4.4
	C20.8,6.9,21,7.2,21,7.6v8.8c0,0.4-0.2,0.7-0.5,0.9l-8,4.4C12.2,21.9,11.8,21.9,11.5,21.7z M9.1,9.2c0.4-0.4,0.8-0.7,1.3-0.9
	S11.4,8,12,8s1.1,0.1,1.6,0.3s0.9,0.5,1.3,0.9l3-1.7L12,4.3L6.1,7.6L9.1,9.2z M11,19.1v-3.3c-0.9-0.2-1.6-0.7-2.2-1.4
	C8.3,13.7,8,12.9,8,12c0-0.2,0-0.4,0-0.5c0-0.2,0-0.3,0.1-0.5L5,9.2v6.6L11,19.1z M12,14c0.6,0,1-0.2,1.4-0.6S14,12.6,14,12
	s-0.2-1-0.6-1.4S12.6,10,12,10s-1,0.2-1.4,0.6S10,11.4,10,12s0.2,1,0.6,1.4S11.4,14,12,14z M13,19.1l6-3.3V9.2L15.9,11
	c0.1,0.2,0.1,0.3,0.1,0.5c0,0.2,0,0.3,0,0.5c0,0.9-0.3,1.7-0.8,2.4s-1.3,1.2-2.2,1.4V19.1z"/>
<path class="st1" d="M20.5,6.7l-3.4-1.9c-1.1,0.1-2.1,0.3-3,0.6l3.8,2.1l-3,1.7c-0.4-0.4-0.8-0.7-1.3-0.9S12.5,8,12,8
	s-1.1,0.1-1.6,0.3C9.9,8.5,9.5,8.8,9.1,9.2c-0.4,0.6-0.7,1.2-1,1.8l0,0c0,0.2-0.1,0.3-0.1,0.5s0,0.3,0,0.5c0,0.9,0.3,1.7,0.8,2.5
	s1.3,1.2,2.2,1.4v3.3l-3.6-2c0.2,1,0.5,1.9,1,2.8l3.2,1.8c0.3,0.2,0.7,0.2,1,0l8-4.5c0.3-0.2,0.5-0.5,0.5-0.9V7.6
	C21,7.2,20.8,6.9,20.5,6.7z M12,14c-0.5,0-1-0.2-1.4-0.6S10,12.5,10,12s0.2-1,0.6-1.4S11.5,10,12,10s1,0.2,1.4,0.6S14,11.5,14,12
	s-0.2,1-0.6,1.4S12.5,14,12,14z M19,15.8l-6,3.3v-3.3c0.9-0.2,1.6-0.7,2.2-1.4S16,12.9,16,12c0-0.2,0-0.4,0-0.5s0-0.3-0.1-0.5
	L19,9.2V15.8z"/>
</svg>
