<?xml version="1.0" encoding="UTF-8"?>
<svg id="Layer_1" xmlns="http://www.w3.org/2000/svg" version="1.1" viewBox="0 0 256 256">
  <!-- Generator: Adobe Illustrator 29.1.0, SVG Export Plug-In . SVG Version: 2.1.0 Build 142)  -->
  <defs>
    <style>
      .st0 {
        fill: #af7500;
      }

      .st1 {
        fill: #ff9e03;
      }
    </style>
  </defs>
  <path class="st0" d="M120.9,252.8l-103.4-56.9c-3.9-2.6-6.5-6.5-6.5-11.6v-113.8c0-5.2,2.6-9,6.5-11.6L120.9,2c3.9-2.6,9-2.6,12.9,0l103.4,56.9c3.9,2.6,6.5,6.5,6.5,11.6v113.7c0,5.2-2.6,9-6.5,11.6l-103.4,56.9c-3.8,2.7-9,2.7-12.9,0ZM89.9,91.2c5.2-5.2,10.3-9,16.8-11.6s12.9-3.9,20.7-3.9,14.2,1.3,20.7,3.9,11.6,6.5,16.8,11.6l38.8-22L127.4,27.8l-76.2,42.7,38.7,20.7ZM114.5,219.2v-42.7c-11.6-2.6-20.7-9-28.4-18.1-6.5-9-10.3-19.4-10.3-31v-6.5c0-2.6,0-3.9,1.3-6.5l-40.2-23.2v85.3l77.6,42.7ZM127.4,153.3c7.8,0,12.9-2.6,18.1-7.8s7.8-10.3,7.8-18.1-2.6-12.9-7.8-18.1-10.3-7.8-18.1-7.8-12.9,2.6-18.1,7.8c-5.2,5.2-7.8,10.3-7.8,18.1s2.6,12.9,7.8,18.1,10.3,7.8,18.1,7.8ZM140.3,219.2l77.5-42.7v-85.3l-40.1,23.3c1.3,2.6,1.3,3.9,1.3,6.5v6.5c0,11.6-3.9,22-10.3,31-6.5,9-16.8,15.5-28.4,18.1v42.6h0Z"/>
  <path class="st1" d="M237.3,58.9l-43.9-24.6c-14.2,1.3-27.1,3.9-38.8,7.8l49.1,27.1-38.8,22c-5.2-5.2-10.3-9-16.8-11.6s-14.2-3.9-20.7-3.9-14.2,1.3-20.7,3.9-11.6,6.5-16.8,11.6c-5.2,7.8-9,15.5-12.9,23.3h0c0,2.6-1.3,3.9-1.3,6.5v6.5c0,11.6,3.9,22,10.3,32.3,6.5,10.3,16.8,15.5,28.4,18.1v42.6l-46.4-25.9c2.6,12.9,6.5,24.6,12.9,36.2l41.4,23.3c3.9,2.6,9,2.6,12.9,0l103.4-58.2c3.9-2.6,6.5-6.5,6.5-11.6v-113.8c-1.4-5.1-4-9-7.8-11.6ZM127.4,153.3c-6.5,0-12.9-2.6-18.1-7.8s-7.8-11.6-7.8-18.1,2.6-12.9,7.8-18.1,11.6-7.8,18.1-7.8,12.9,2.6,18.1,7.8c5.2,5.2,7.8,11.6,7.8,18.1s-2.6,12.9-7.8,18.1-11.6,7.8-18.1,7.8ZM217.9,176.5l-77.5,42.7v-42.7c11.6-2.6,20.7-9,28.4-18.1,7.8-9,10.3-19.4,10.3-31v-6.5c0-1.3,0-3.9-1.3-6.5l40.1-23.3v85.4Z"/>
</svg>