<?xml version="1.0" encoding="utf-8"?>
<!-- Generator: Adobe Illustrator 28.1.0, SVG Export Plug-In . SVG Version: 6.00 Build 0)  -->
<svg version="1.1" id="Layer_1" xmlns="http://www.w3.org/2000/svg" xmlns:xlink="http://www.w3.org/1999/xlink" x="0px" y="0px"
	 viewBox="0 0 256 256" style="enable-background:new 0 0 256 256;" xml:space="preserve">
<style type="text/css">
	.st0{fill:#0062B1;}
	.st1{fill:#029CFF;}
</style>
<path class="st0" d="M120.9,252.8L17.5,195.9c-3.9-2.6-6.5-6.5-6.5-11.6V70.5c0-5.2,2.6-9,6.5-11.6L120.9,2c3.9-2.6,9-2.6,12.9,0
	l103.4,56.9c3.9,2.6,6.5,6.5,6.5,11.6v113.7c0,5.2-2.6,9-6.5,11.6l-103.4,56.9C130,255.4,124.8,255.4,120.9,252.8z M89.9,91.2
	c5.2-5.2,10.3-9,16.8-11.6s12.9-3.9,20.7-3.9s14.2,1.3,20.7,3.9c6.5,2.6,11.6,6.5,16.8,11.6l38.8-22l-76.3-41.4L51.2,70.5L89.9,91.2
	z M114.5,219.2v-42.7c-11.6-2.6-20.7-9-28.4-18.1c-6.5-9-10.3-19.4-10.3-31c0-2.6,0-5.2,0-6.5c0-2.6,0-3.9,1.3-6.5L36.9,91.2v85.3
	L114.5,219.2z M127.4,153.3c7.8,0,12.9-2.6,18.1-7.8s7.8-10.3,7.8-18.1s-2.6-12.9-7.8-18.1c-5.2-5.2-10.3-7.8-18.1-7.8
	s-12.9,2.6-18.1,7.8c-5.2,5.2-7.8,10.3-7.8,18.1s2.6,12.9,7.8,18.1S119.6,153.3,127.4,153.3z M140.3,219.2l77.5-42.7V91.2
	l-40.1,23.3c1.3,2.6,1.3,3.9,1.3,6.5s0,3.9,0,6.5c0,11.6-3.9,22-10.3,31c-6.5,9-16.8,15.5-28.4,18.1V219.2z"/>
<path class="st1" d="M237.3,58.9l-43.9-24.6c-14.2,1.3-27.1,3.9-38.8,7.8l49.1,27.1l-38.8,22c-5.2-5.2-10.3-9-16.8-11.6
	s-14.2-3.9-20.7-3.9c-6.5,0-14.2,1.3-20.7,3.9c-6.5,2.6-11.6,6.5-16.8,11.6c-5.2,7.8-9,15.5-12.9,23.3l0,0c0,2.6-1.3,3.9-1.3,6.5
	s0,3.9,0,6.5c0,11.6,3.9,22,10.3,32.3c6.5,10.3,16.8,15.5,28.4,18.1v42.6L68,194.6c2.6,12.9,6.5,24.6,12.9,36.2l41.4,23.3
	c3.9,2.6,9,2.6,12.9,0l103.4-58.2c3.9-2.6,6.5-6.5,6.5-11.6V70.5C243.7,65.4,241.1,61.5,237.3,58.9z M127.4,153.3
	c-6.5,0-12.9-2.6-18.1-7.8s-7.8-11.6-7.8-18.1s2.6-12.9,7.8-18.1s11.6-7.8,18.1-7.8c6.5,0,12.9,2.6,18.1,7.8
	c5.2,5.2,7.8,11.6,7.8,18.1s-2.6,12.9-7.8,18.1C140.3,150.7,133.9,153.3,127.4,153.3z M217.9,176.5l-77.5,42.7v-42.7
	c11.6-2.6,20.7-9,28.4-18.1c7.8-9,10.3-19.4,10.3-31c0-2.6,0-5.2,0-6.5s0-3.9-1.3-6.5l40.1-23.3V176.5z"/>
</svg>
